<svg width="30" height="24" viewBox="0 0 30 24" fill="none" xmlns="http://www.w3.org/2000/svg">
<path d="M26 0H4C1.79086 0 0 1.79086 0 4V20C0 22.2091 1.79086 24 4 24H26C28.2091 24 30 22.2091 30 20V4C30 1.79086 28.2091 0 26 0Z" fill="white"/>
<path d="M30 10H17V0H13V10H0V14H13V24H17V14H30V10Z" fill="#EA3323"/>
<path d="M9 4.141C8.381 4.265 7.754 4.343 7.126 4.374C7.157 3.746 7.235 3.12 7.359 2.5C6.789 2.575 6.211 2.575 5.641 2.5C5.765 3.119 5.843 3.746 5.874 4.374C5.246 4.343 4.62 4.265 4 4.141C4.075 4.711 4.075 5.289 4 5.859C4.619 5.735 5.246 5.657 5.874 5.626C5.843 6.254 5.765 6.88 5.641 7.5C6.211 7.425 6.789 7.425 7.359 7.5C7.235 6.881 7.157 6.254 7.126 5.626C7.754 5.657 8.38 5.735 9 5.859C8.925 5.289 8.925 4.711 9 4.141Z" fill="#EA3323"/>
<path d="M21 4.141C21.619 4.265 22.246 4.343 22.874 4.374C22.843 3.746 22.765 3.12 22.641 2.5C23.211 2.575 23.789 2.575 24.359 2.5C24.235 3.119 24.157 3.746 24.126 4.374C24.754 4.343 25.38 4.265 26 4.141C25.925 4.711 25.925 5.289 26 5.859C25.381 5.735 24.754 5.657 24.126 5.626C24.157 6.254 24.235 6.88 24.359 7.5C23.789 7.425 23.211 7.425 22.641 7.5C22.765 6.881 22.843 6.254 22.874 5.626C22.246 5.657 21.62 5.735 21 5.859C21.075 5.289 21.075 4.711 21 4.141Z" fill="#EA3323"/>
<path d="M9 19.859C8.381 19.735 7.754 19.657 7.126 19.626C7.157 20.254 7.235 20.88 7.359 21.5C6.789 21.425 6.211 21.425 5.641 21.5C5.765 20.881 5.843 20.254 5.874 19.626C5.246 19.657 4.62 19.735 4 19.859C4.075 19.289 4.075 18.711 4 18.141C4.619 18.265 5.246 18.343 5.874 18.374C5.843 17.746 5.765 17.12 5.641 16.5C6.211 16.575 6.789 16.575 7.359 16.5C7.235 17.119 7.157 17.746 7.126 18.374C7.754 18.343 8.38 18.265 9 18.141C8.925 18.711 8.925 19.289 9 19.859Z" fill="#EA3323"/>
<path d="M21 19.859C21.619 19.735 22.246 19.657 22.874 19.626C22.843 20.254 22.765 20.88 22.641 21.5C23.211 21.425 23.789 21.425 24.359 21.5C24.235 20.881 24.157 20.254 24.126 19.626C24.754 19.657 25.38 19.735 26 19.859C25.925 19.289 25.925 18.711 26 18.141C25.381 18.265 24.754 18.343 24.126 18.374C24.157 17.746 24.235 17.12 24.359 16.5C23.789 16.575 23.211 16.575 22.641 16.5C22.765 17.119 22.843 17.746 22.874 18.374C22.246 18.343 21.62 18.265 21 18.141C21.075 18.711 21.075 19.289 21 19.859Z" fill="#EA3323"/>
<path opacity="0.2" d="M26 1H4C2.343 1 1 2.343 1 4V5C1 3.343 2.343 2 4 2H26C27.657 2 29 3.343 29 5V4C29 2.343 27.657 1 26 1Z" fill="white"/>
</svg>
