<svg width="30" height="24" viewBox="0 0 30 24" fill="none" xmlns="http://www.w3.org/2000/svg">
<path d="M0 7H30V17H0V7Z" fill="white"/>
<path d="M4 0H26C28.208 0 30 1.792 30 4V8H0V4C0 1.792 1.792 0 4 0Z" fill="black"/>
<path d="M26 24L4 24C1.792 24 0 22.208 0 20V16L30 16V20C30 22.208 28.208 24 26 24Z" fill="#357942"/>
<path d="M1.316 22.947L15 12L1.316 1.05298C0.513 1.78498 0 2.82898 0 3.99998V20C0 21.172 0.513 22.216 1.316 22.947Z" fill="#BE2A2C"/>
<path d="M5.78703 9.276L5.16603 10.853L3.54903 10.359L4.39303 11.825L2.99103 12.781L4.67203 13.036L4.54503 14.725L5.78803 13.578L7.03903 14.725L6.91203 13.036L8.58503 12.781L7.19103 11.825L8.03503 10.359L6.41803 10.853L5.78903 9.276H5.78703Z" fill="white"/>
<path opacity="0.2" d="M26 1H4C2.343 1 1 2.343 1 4V5C1 3.343 2.343 2 4 2H26C27.657 2 29 3.343 29 5V4C29 2.343 27.657 1 26 1Z" fill="white"/>
</svg>
