<svg width="30" height="24" viewBox="0 0 30 24" fill="none" xmlns="http://www.w3.org/2000/svg">
<path d="M0 6H30V18H0V6Z" fill="#F1C142"/>
<path d="M4 0H26C28.208 0 30 1.792 30 4V7H0V4C0 1.792 1.792 0 4 0Z" fill="#A0251E"/>
<path d="M26 24L4 24C1.792 24 0 22.208 0 20V17L30 17V20C30 22.208 28.208 24 26 24Z" fill="#A0251E"/>
<path opacity="0.2" d="M26 1H4C2.343 1 1 2.343 1 4V5C1 3.343 2.343 2 4 2H26C27.657 2 29 3.343 29 5V4C29 2.343 27.657 1 26 1Z" fill="white"/>
<path d="M11.614 9.09099C11.68 9.05999 11.669 8.95099 11.598 8.93399C11.655 8.88699 11.618 8.78399 11.543 8.78599C11.583 8.72899 11.531 8.64199 11.461 8.65599C11.482 8.59399 11.419 8.52899 11.357 8.55099C11.367 8.48299 11.286 8.43199 11.23 8.46999C11.234 8.40199 11.149 8.35799 11.096 8.40099C11.086 8.32999 10.986 8.30599 10.946 8.36599C10.932 8.29799 10.835 8.27899 10.797 8.33799C10.77 8.28299 10.683 8.28099 10.653 8.33399C10.623 8.28699 10.546 8.28899 10.517 8.33599C10.499 8.30799 10.46 8.29199 10.427 8.30199C10.436 8.23699 10.361 8.18699 10.305 8.21999C10.307 8.14999 10.218 8.10899 10.167 8.15599C10.154 8.09199 10.064 8.06899 10.023 8.11999C10.003 8.05699 9.90903 8.04499 9.87503 8.10299C9.83903 8.04699 9.74603 8.06099 9.72803 8.12499C9.68703 8.06999 9.59303 8.09399 9.58203 8.16099C9.57103 8.15299 9.55903 8.14699 9.54503 8.14499C9.55103 8.13699 9.55503 8.12899 9.56003 8.11999H9.56203C9.62003 8.01299 9.56603 7.86399 9.45603 7.82199V7.72399H9.55503V7.56999H9.45603V7.46899H9.30503V7.56999H9.20603V7.72399H9.30503V7.81999C9.19203 7.85999 9.13603 8.01099 9.19503 8.11899H9.19703C9.20103 8.12699 9.20603 8.13599 9.21103 8.14299C9.19603 8.14499 9.18203 8.15099 9.17103 8.15999C9.16003 8.09299 9.06503 8.06899 9.02503 8.12399C9.00703 8.05999 8.91403 8.04599 8.87803 8.10199C8.84403 8.04499 8.75003 8.05599 8.73003 8.11899C8.68903 8.06699 8.59903 8.09099 8.58603 8.15499C8.53503 8.10799 8.44703 8.14899 8.44803 8.21899C8.39203 8.18599 8.31703 8.23599 8.32603 8.30099C8.29203 8.29099 8.25403 8.30699 8.23503 8.33499C8.20603 8.28799 8.12903 8.28599 8.09903 8.33299C8.06903 8.27899 7.98203 8.28199 7.95603 8.33699C7.91903 8.27799 7.82103 8.29699 7.80703 8.36499C7.76803 8.30499 7.66703 8.32799 7.65703 8.39999C7.60403 8.35699 7.51903 8.39999 7.52303 8.46899C7.46703 8.43099 7.38603 8.48199 7.39603 8.54999C7.33403 8.52899 7.27103 8.59399 7.29203 8.65499C7.24203 8.64599 7.19603 8.68799 7.19603 8.73899C7.19603 8.75599 7.20103 8.77199 7.21003 8.78599C7.13503 8.78399 7.09903 8.88699 7.15503 8.93399C7.08403 8.95099 7.07303 9.05899 7.13903 9.09099C7.07803 9.12599 7.09203 9.22899 7.16103 9.24499C7.14803 9.25999 7.14003 9.27899 7.14003 9.29999C7.14003 9.34199 7.17003 9.37699 7.20903 9.38399C7.18603 9.43199 7.21803 9.49399 7.26903 9.50199C7.25603 9.53199 7.25703 9.57499 7.25703 9.60799C7.34703 9.58899 7.45703 9.61399 7.49603 9.71799C7.48103 9.78599 7.56103 9.87399 7.63403 9.86399C7.69403 9.94899 7.76703 10.029 7.88503 10.061C7.86403 10.154 7.94903 10.154 8.00803 10.179C7.99503 10.195 7.96503 10.242 7.95303 10.26C7.97703 10.273 8.04003 10.301 8.06603 10.311C8.07103 10.33 8.07003 10.339 8.07003 10.342C8.16103 10.843 10.604 10.844 10.686 10.341V10.339C10.686 10.339 10.69 10.342 10.69 10.343C10.69 10.34 10.689 10.332 10.694 10.312L10.812 10.27L10.75 10.18C10.806 10.152 10.895 10.155 10.873 10.061C10.992 10.029 11.066 9.94899 11.126 9.86299C11.199 9.87299 11.279 9.78499 11.264 9.71699C11.303 9.61299 11.414 9.58799 11.503 9.60699C11.503 9.57199 11.505 9.52899 11.49 9.49799C11.534 9.48399 11.56 9.42699 11.539 9.38299C11.601 9.37399 11.63 9.28999 11.587 9.24399C11.656 9.22799 11.67 9.12399 11.609 9.08999L11.614 9.09099ZM11.318 8.97699C11.318 9.02599 11.306 9.07499 11.284 9.11799C11.086 8.98099 10.807 8.87999 10.59 8.90399C10.588 8.89499 10.584 8.88699 10.579 8.87999C10.579 8.87999 10.579 8.87899 10.579 8.87799C10.643 8.85699 10.653 8.75799 10.594 8.72499C10.642 8.69299 10.639 8.61199 10.589 8.58399C10.917 8.54499 11.318 8.67399 11.318 8.97699ZM10.362 8.70199C10.362 8.76499 10.342 8.82599 10.308 8.87699C10.034 8.81799 9.89603 8.70799 9.59103 8.69199C9.58403 8.60999 9.58603 8.52099 9.58003 8.43799C9.82603 8.24799 10.389 8.37599 10.362 8.70199ZM9.17103 8.53799C9.16903 8.58799 9.16803 8.63999 9.16403 8.68899C8.86203 8.70199 8.71503 8.81099 8.44503 8.87399C8.18503 8.46799 8.86003 8.19799 9.17503 8.43799C9.17303 8.47099 9.17003 8.50399 9.17103 8.53799ZM8.12503 8.65499C8.12503 8.68299 8.13903 8.70799 8.15903 8.72399C8.10103 8.75699 8.11003 8.85599 8.17403 8.87599C8.17403 8.87599 8.17403 8.87699 8.17403 8.87799C8.16903 8.88499 8.16603 8.89299 8.16303 8.90199C7.94403 8.87799 7.66803 8.96899 7.46503 9.10799C7.31003 8.73099 7.78803 8.53199 8.16303 8.58299C8.14003 8.59799 8.12403 8.62399 8.12403 8.65499H8.12503ZM8.07703 10.338V10.34C8.07703 10.34 8.07503 10.34 8.07403 10.342C8.07403 10.341 8.07603 10.338 8.07703 10.338Z" fill="#9B8028"/>
<path d="M13.133 12.856C13.408 12.206 13.334 12.348 12.814 12.069V11.196C12.963 11.097 12.72 11.075 12.864 10.961H12.936V10.622H11.946V10.961H12.021C12.157 11.063 11.93 11.107 12.071 11.196V11.956C11.547 11.949 11.3 12.022 11.392 12.532H11.431L11.447 12.568C11.587 12.505 11.819 12.461 12.071 12.449V12.673C11.687 12.702 11.651 13.281 12.071 13.473V14.764C12.018 14.781 12.002 14.853 12.047 14.887C12.054 14.952 11.989 14.979 11.934 14.97C11.934 14.996 11.934 15.207 11.934 15.239C11.89 15.263 11.821 15.269 11.764 15.267V15.375V15.482V15.589V15.697V15.883C12.223 15.815 12.659 15.815 13.117 15.883V15.267C13.06 15.269 12.993 15.263 12.947 15.239C12.947 15.206 12.947 14.998 12.947 14.971C12.893 14.979 12.829 14.954 12.834 14.89C12.882 14.857 12.868 14.782 12.813 14.764V13.832C12.851 13.849 12.886 13.867 12.918 13.885C12.813 14.004 12.826 14.211 12.949 14.314L13.006 14.261C13.228 13.932 13.402 13.518 12.813 13.365V13.015C12.99 12.996 13.102 12.941 13.132 12.857L13.133 12.856Z" fill="#9B8028"/>
<path d="M11.531 10.533H7.25098L7.25398 13.105V14.59C7.25398 15.022 7.47998 15.412 7.84498 15.609C8.31798 15.861 8.86898 16 9.39698 16C9.92498 16 10.461 15.865 10.941 15.609C11.305 15.412 11.532 15.022 11.532 14.59L11.531 10.533Z" fill="#A0251E"/>
</svg>
